<svg xmlns="http://www.w3.org/2000/svg" width="193" height="74" viewBox="0 0 193 74"><defs><style>.a,.c{fill:#00366f;}.a{fill-rule:evenodd;}.b{fill:#7ab02a;}.d{fill:#56596a;font-size:12px;font-family:Nunito-Regular, Nunito;letter-spacing:0.02em;}</style></defs><g transform="translate(-86.354 -319.849)"><path class="a" d="M112.354,406.415a2.8,2.8,0,1,1-1.8,3.528,2.8,2.8,0,0,1,1.8-3.528m14.874-4.833a2.8,2.8,0,1,1-1.8,3.528A2.8,2.8,0,0,1,127.229,401.582Zm10.761-7.445,3.617,11.131A2.505,2.505,0,0,1,140,408.42l-34,11.047a2.5,2.5,0,0,1-3.151-1.605l-9.483-29.184,4.3-1.4,11.465,16.367c1.222,1.744,1.718,1.58,3.505,1l17.544-5.7a2.092,2.092,0,0,0,1.461-2.677l-.021-.062Z" transform="translate(-3.743 -36)"/><path class="b" d="M88.083,349.951l7.6-2.468,1.186,3.651a3.137,3.137,0,1,0,3.817-1.241q-.594-1.825-1.186-3.65l11.175-3.631,1.186,3.65a3.138,3.138,0,1,0,3.817-1.24l-1.186-3.651,7.6-2.468a2.5,2.5,0,0,1,3.152,1.606l8.972,27.614.04.121-6.372,2.07c-.018-.05-.037-.1-.058-.147a2.1,2.1,0,0,0-2.654-1.1l-16.977,5.516L96.334,357.663a1.9,1.9,0,0,0-2.152-.763l-5.853,1.9-1.852-5.7a2.5,2.5,0,0,1,1.606-3.152" transform="translate(0 -10.107)"/><path class="c" d="M114.194,320.047a9.261,9.261,0,0,1,6.9,6.186l3.094,9.522a2.208,2.208,0,1,1-2.594.843l-3.094-9.522a6.517,6.517,0,0,0-12.4,4.028l3.094,9.522a2.208,2.208,0,1,1-2.595.843l-3.094-9.522a9.245,9.245,0,0,1,10.685-11.9" transform="translate(-8.918)"/><path class="b" d="M211.71,378.279h8.514V364.77H231.26v13.509h8.514V344.364H231.26V357.4H220.224V344.364H211.71Z" transform="translate(-66.923 -13.088)"/><path class="b" d="M285.475,397.647c4.138,0,7.754-1.617,9.514-6.564l9.8-27.637h-7.373l-4.9,15.745h-.143l-4.995-15.745h-8.419l9.133,24.64-.619,1.713a2.716,2.716,0,0,1-2.711,1.713,18.627,18.627,0,0,1-3.091-.286v6.041a23.989,23.989,0,0,0,3.805.38" transform="translate(-102.824 -23.275)"/><path class="b" d="M352.52,382.682c-2.093,0-4.281-1.237-4.281-4v-5.756c0-3.472,2.236-4.519,4.233-4.519a3.854,3.854,0,0,1,4.091,4.043v6.184a3.8,3.8,0,0,1-4.043,4.043m-12.13,14.175h7.848V385.632h.143a8.089,8.089,0,0,0,6.089,2.854c5.518,0,9.989-3.52,9.989-9.323V371.6c0-5.8-3.663-9.276-9.276-9.276a9.392,9.392,0,0,0-7.04,3.52H348.1v-3H340.39Z" transform="translate(-135.621 -22.676)"/><path class="b" d="M413.543,382.682c-2.093,0-4.281-1.237-4.281-4v-5.756c0-3.472,2.236-4.519,4.233-4.519a3.854,3.854,0,0,1,4.091,4.043v6.184a3.8,3.8,0,0,1-4.043,4.043m-12.13,14.175h7.849V385.632h.143a8.088,8.088,0,0,0,6.089,2.854c5.518,0,9.989-3.52,9.989-9.323V371.6c0-5.8-3.663-9.276-9.276-9.276a9.391,9.391,0,0,0-7.04,3.52h-.048v-3h-7.706Z" transform="translate(-168.199 -22.676)"/><path class="b" d="M462.131,387.977h7.848V374.943c0-4.328,3.378-5.708,6.66-5.708a24.733,24.733,0,0,1,3.33.285v-6.755a11.172,11.172,0,0,0-2.473-.238,9.352,9.352,0,0,0-7.611,4.566h-.048v-4.138h-7.706Z" transform="translate(-200.777 -22.785)"/><text class="d" transform="translate(196.354 389.849)"><tspan x="0" y="0">Customer Care</tspan></text></g></svg>